<mxfile host="app.diagrams.net" modified="2021-03-03T07:17:29.634Z" agent="5.0 (Macintosh; Intel Mac OS X 10_13_6) AppleWebKit/537.36 (KHTML, like Gecko) Chrome/88.0.4324.192 Safari/537.36" etag="0WjqpZ0qBExt4KH0M_aW" version="14.3.0" type="github">
  <diagram id="yDwkKxPdFmuVsry55Ucg" name="第 1 页">
    <mxGraphModel dx="2893" dy="1018" grid="1" gridSize="10" guides="1" tooltips="1" connect="1" arrows="1" fold="1" page="1" pageScale="1" pageWidth="827" pageHeight="1169" math="0" shadow="0">
      <root>
        <mxCell id="0" />
        <mxCell id="1" parent="0" />
        <mxCell id="HAz-nXSXMQ4NGfx6ONky-98" value="" style="rounded=0;whiteSpace=wrap;html=1;fillColor=#FFFFFF;dashed=1;" parent="1" vertex="1">
          <mxGeometry x="-100" y="370" width="940" height="190" as="geometry" />
        </mxCell>
        <mxCell id="HAz-nXSXMQ4NGfx6ONky-61" value="" style="rounded=0;whiteSpace=wrap;html=1;fillColor=#FFFFFF;dashed=1;" parent="1" vertex="1">
          <mxGeometry x="-100" y="620" width="940" height="460" as="geometry" />
        </mxCell>
        <mxCell id="HAz-nXSXMQ4NGfx6ONky-42" value="" style="rounded=0;whiteSpace=wrap;html=1;dashed=1;fillColor=#FFFFFF;strokeColor=#AB3820;" parent="1" vertex="1">
          <mxGeometry x="50" y="670" width="770" height="290" as="geometry" />
        </mxCell>
        <mxCell id="HAz-nXSXMQ4NGfx6ONky-40" value="" style="rounded=0;whiteSpace=wrap;html=1;fillColor=#F2F1F2;" parent="1" vertex="1">
          <mxGeometry x="44.38" y="990" width="775.62" height="60" as="geometry" />
        </mxCell>
        <mxCell id="HAz-nXSXMQ4NGfx6ONky-8" value="主账号" style="rounded=0;whiteSpace=wrap;html=1;" parent="1" vertex="1">
          <mxGeometry x="188" y="1005" width="70" height="25" as="geometry" />
        </mxCell>
        <mxCell id="HAz-nXSXMQ4NGfx6ONky-10" value="子账号" style="rounded=0;whiteSpace=wrap;html=1;" parent="1" vertex="1">
          <mxGeometry x="290" y="1002.5" width="70" height="30" as="geometry" />
        </mxCell>
        <mxCell id="HAz-nXSXMQ4NGfx6ONky-22" value="认证" style="rounded=0;whiteSpace=wrap;html=1;" parent="1" vertex="1">
          <mxGeometry x="388" y="1005" width="70" height="25" as="geometry" />
        </mxCell>
        <mxCell id="HAz-nXSXMQ4NGfx6ONky-24" value="" style="rounded=0;whiteSpace=wrap;html=1;" parent="1" vertex="1">
          <mxGeometry x="79.5" y="770" width="120" height="160" as="geometry" />
        </mxCell>
        <mxCell id="HAz-nXSXMQ4NGfx6ONky-25" value="&lt;font style=&quot;font-size: 14px&quot;&gt;安全校验&lt;/font&gt;" style="text;html=1;strokeColor=none;fillColor=none;align=center;verticalAlign=middle;whiteSpace=wrap;rounded=0;" parent="1" vertex="1">
          <mxGeometry x="99.5" y="785" width="67" height="20" as="geometry" />
        </mxCell>
        <mxCell id="HAz-nXSXMQ4NGfx6ONky-26" value="手机" style="rounded=0;whiteSpace=wrap;html=1;" parent="1" vertex="1">
          <mxGeometry x="99.5" y="815" width="70" height="25" as="geometry" />
        </mxCell>
        <mxCell id="HAz-nXSXMQ4NGfx6ONky-27" value="邮箱" style="rounded=0;whiteSpace=wrap;html=1;" parent="1" vertex="1">
          <mxGeometry x="99.5" y="850" width="70" height="30" as="geometry" />
        </mxCell>
        <mxCell id="HAz-nXSXMQ4NGfx6ONky-28" value="MFA" style="rounded=0;whiteSpace=wrap;html=1;" parent="1" vertex="1">
          <mxGeometry x="99.5" y="890" width="70" height="30" as="geometry" />
        </mxCell>
        <mxCell id="HAz-nXSXMQ4NGfx6ONky-29" value="" style="rounded=0;whiteSpace=wrap;html=1;" parent="1" vertex="1">
          <mxGeometry x="229.5" y="770" width="130" height="160" as="geometry" />
        </mxCell>
        <mxCell id="HAz-nXSXMQ4NGfx6ONky-30" value="&lt;font style=&quot;font-size: 14px&quot;&gt;人机验证&lt;/font&gt;" style="text;html=1;strokeColor=none;fillColor=none;align=center;verticalAlign=middle;whiteSpace=wrap;rounded=0;" parent="1" vertex="1">
          <mxGeometry x="261" y="785" width="67" height="20" as="geometry" />
        </mxCell>
        <mxCell id="HAz-nXSXMQ4NGfx6ONky-31" value="滑验" style="rounded=0;whiteSpace=wrap;html=1;" parent="1" vertex="1">
          <mxGeometry x="258" y="815" width="70" height="25" as="geometry" />
        </mxCell>
        <mxCell id="HAz-nXSXMQ4NGfx6ONky-32" value="图验" style="rounded=0;whiteSpace=wrap;html=1;" parent="1" vertex="1">
          <mxGeometry x="258" y="852.5" width="70" height="25" as="geometry" />
        </mxCell>
        <mxCell id="HAz-nXSXMQ4NGfx6ONky-34" value="" style="rounded=0;whiteSpace=wrap;html=1;" parent="1" vertex="1">
          <mxGeometry x="384.5" y="770" width="120" height="160" as="geometry" />
        </mxCell>
        <mxCell id="HAz-nXSXMQ4NGfx6ONky-35" value="&lt;span style=&quot;font-size: 14px&quot;&gt;数据同步&lt;/span&gt;" style="text;html=1;strokeColor=none;fillColor=none;align=center;verticalAlign=middle;whiteSpace=wrap;rounded=0;" parent="1" vertex="1">
          <mxGeometry x="411" y="785" width="67" height="20" as="geometry" />
        </mxCell>
        <mxCell id="HAz-nXSXMQ4NGfx6ONky-36" value="..." style="rounded=0;whiteSpace=wrap;html=1;" parent="1" vertex="1">
          <mxGeometry x="258" y="892.5" width="70" height="25" as="geometry" />
        </mxCell>
        <mxCell id="HAz-nXSXMQ4NGfx6ONky-37" value="LDAP" style="rounded=0;whiteSpace=wrap;html=1;" parent="1" vertex="1">
          <mxGeometry x="408" y="815" width="70" height="25" as="geometry" />
        </mxCell>
        <mxCell id="HAz-nXSXMQ4NGfx6ONky-38" value="SCIM" style="rounded=0;whiteSpace=wrap;html=1;" parent="1" vertex="1">
          <mxGeometry x="408" y="852.5" width="70" height="25" as="geometry" />
        </mxCell>
        <mxCell id="HAz-nXSXMQ4NGfx6ONky-41" value="&lt;font style=&quot;font-size: 14px&quot;&gt;基础账号管理&lt;/font&gt;" style="text;html=1;strokeColor=none;fillColor=none;align=center;verticalAlign=middle;whiteSpace=wrap;rounded=0;dashed=1;" parent="1" vertex="1">
          <mxGeometry x="59.99999999999999" y="1007.5" width="110" height="20" as="geometry" />
        </mxCell>
        <mxCell id="HAz-nXSXMQ4NGfx6ONky-44" value="" style="rounded=0;whiteSpace=wrap;html=1;" parent="1" vertex="1">
          <mxGeometry x="78" y="700" width="709.5" height="50" as="geometry" />
        </mxCell>
        <mxCell id="HAz-nXSXMQ4NGfx6ONky-45" value="&lt;font style=&quot;font-size: 14px&quot;&gt;多租户&lt;/font&gt;" style="text;html=1;strokeColor=none;fillColor=none;align=center;verticalAlign=middle;whiteSpace=wrap;rounded=0;" parent="1" vertex="1">
          <mxGeometry x="88" y="712.5" width="50" height="20" as="geometry" />
        </mxCell>
        <mxCell id="HAz-nXSXMQ4NGfx6ONky-46" value="零售云账号" style="rounded=0;whiteSpace=wrap;html=1;" parent="1" vertex="1">
          <mxGeometry x="159.5" y="712.5" width="70" height="25" as="geometry" />
        </mxCell>
        <mxCell id="HAz-nXSXMQ4NGfx6ONky-47" value="B端账号" style="rounded=0;whiteSpace=wrap;html=1;" parent="1" vertex="1">
          <mxGeometry x="400" y="712.5" width="70" height="25" as="geometry" />
        </mxCell>
        <mxCell id="HAz-nXSXMQ4NGfx6ONky-48" value="C端账号" style="rounded=0;whiteSpace=wrap;html=1;" parent="1" vertex="1">
          <mxGeometry x="520" y="712.5" width="70" height="25" as="geometry" />
        </mxCell>
        <mxCell id="HAz-nXSXMQ4NGfx6ONky-49" value="开发者账号" style="rounded=0;whiteSpace=wrap;html=1;" parent="1" vertex="1">
          <mxGeometry x="280" y="712.5" width="70" height="25" as="geometry" />
        </mxCell>
        <mxCell id="HAz-nXSXMQ4NGfx6ONky-50" value="" style="rounded=0;whiteSpace=wrap;html=1;" parent="1" vertex="1">
          <mxGeometry x="527.5" y="770" width="120" height="160" as="geometry" />
        </mxCell>
        <mxCell id="HAz-nXSXMQ4NGfx6ONky-51" value="&lt;font style=&quot;font-size: 14px&quot;&gt;认证授权&lt;/font&gt;" style="text;html=1;strokeColor=none;fillColor=none;align=center;verticalAlign=middle;whiteSpace=wrap;rounded=0;" parent="1" vertex="1">
          <mxGeometry x="557.5" y="785" width="60" height="20" as="geometry" />
        </mxCell>
        <mxCell id="HAz-nXSXMQ4NGfx6ONky-52" value="OAuth2.0" style="rounded=0;whiteSpace=wrap;html=1;" parent="1" vertex="1">
          <mxGeometry x="552.5" y="815" width="70" height="25" as="geometry" />
        </mxCell>
        <mxCell id="HAz-nXSXMQ4NGfx6ONky-55" value="OIDC" style="rounded=0;whiteSpace=wrap;html=1;" parent="1" vertex="1">
          <mxGeometry x="552.5" y="852.5" width="70" height="25" as="geometry" />
        </mxCell>
        <mxCell id="HAz-nXSXMQ4NGfx6ONky-59" value="SAML" style="rounded=0;whiteSpace=wrap;html=1;" parent="1" vertex="1">
          <mxGeometry x="552.5" y="890" width="70" height="27.5" as="geometry" />
        </mxCell>
        <mxCell id="HAz-nXSXMQ4NGfx6ONky-60" value="" style="rounded=0;whiteSpace=wrap;html=1;fillColor=#F2F1F2;" parent="1" vertex="1">
          <mxGeometry x="-100" y="240" width="940" height="60" as="geometry" />
        </mxCell>
        <mxCell id="HAz-nXSXMQ4NGfx6ONky-62" value="&lt;font style=&quot;font-size: 14px&quot;&gt;JNOS IDaaS&lt;/font&gt;" style="text;html=1;strokeColor=none;fillColor=none;align=center;verticalAlign=middle;whiteSpace=wrap;rounded=0;dashed=1;" parent="1" vertex="1">
          <mxGeometry x="-90" y="630" width="110" height="20" as="geometry" />
        </mxCell>
        <mxCell id="HAz-nXSXMQ4NGfx6ONky-63" value="&lt;font style=&quot;font-size: 13px&quot;&gt;&lt;font color=&quot;#ff6666&quot; style=&quot;font-size: 13px&quot;&gt;零售云技术部&lt;/font&gt;&lt;/font&gt;" style="text;html=1;strokeColor=none;fillColor=none;align=center;verticalAlign=middle;whiteSpace=wrap;rounded=0;dashed=1;" parent="1" vertex="1">
          <mxGeometry x="-80" y="765" width="100" height="50" as="geometry" />
        </mxCell>
        <mxCell id="HAz-nXSXMQ4NGfx6ONky-65" value="&lt;font style=&quot;font-size: 13px&quot;&gt;&lt;font color=&quot;#ff6666&quot; style=&quot;font-size: 13px&quot;&gt;信息安全部&lt;/font&gt;&lt;/font&gt;" style="text;html=1;strokeColor=none;fillColor=none;align=center;verticalAlign=middle;whiteSpace=wrap;rounded=0;dashed=1;" parent="1" vertex="1">
          <mxGeometry x="-74.37" y="1005" width="102.5" height="30" as="geometry" />
        </mxCell>
        <mxCell id="HAz-nXSXMQ4NGfx6ONky-75" value="" style="rounded=0;whiteSpace=wrap;html=1;fillColor=#CCCCCC;" parent="1" vertex="1">
          <mxGeometry x="-80" y="410" width="910" height="60" as="geometry" />
        </mxCell>
        <mxCell id="HAz-nXSXMQ4NGfx6ONky-76" value="H5" style="rounded=0;whiteSpace=wrap;html=1;fillColor=#FFFFFF;" parent="1" vertex="1">
          <mxGeometry x="110" y="255" width="110" height="30" as="geometry" />
        </mxCell>
        <mxCell id="HAz-nXSXMQ4NGfx6ONky-77" value="WEB" style="rounded=0;whiteSpace=wrap;html=1;fillColor=#FFFFFF;" parent="1" vertex="1">
          <mxGeometry x="290" y="255" width="110" height="30" as="geometry" />
        </mxCell>
        <mxCell id="HAz-nXSXMQ4NGfx6ONky-78" value="Android SDK" style="rounded=0;whiteSpace=wrap;html=1;fillColor=#FFFFFF;" parent="1" vertex="1">
          <mxGeometry x="470" y="255" width="110" height="30" as="geometry" />
        </mxCell>
        <mxCell id="HAz-nXSXMQ4NGfx6ONky-79" value="iOS SDK" style="rounded=0;whiteSpace=wrap;html=1;fillColor=#FFFFFF;" parent="1" vertex="1">
          <mxGeometry x="647.5" y="255" width="110" height="30" as="geometry" />
        </mxCell>
        <mxCell id="HAz-nXSXMQ4NGfx6ONky-82" value="&lt;span style=&quot;font-size: 14px&quot;&gt;JNOS登录组件&lt;/span&gt;" style="text;html=1;strokeColor=none;fillColor=none;align=center;verticalAlign=middle;whiteSpace=wrap;rounded=0;dashed=1;" parent="1" vertex="1">
          <mxGeometry x="-70" y="260" width="110" height="20" as="geometry" />
        </mxCell>
        <mxCell id="HAz-nXSXMQ4NGfx6ONky-85" value="参数解析" style="rounded=0;whiteSpace=wrap;html=1;fillColor=#FFFFFF;" parent="1" vertex="1">
          <mxGeometry x="-60" y="425" width="110" height="30" as="geometry" />
        </mxCell>
        <mxCell id="HAz-nXSXMQ4NGfx6ONky-86" value="流量控制" style="rounded=0;whiteSpace=wrap;html=1;fillColor=#FFFFFF;" parent="1" vertex="1">
          <mxGeometry x="89.5" y="425" width="110" height="30" as="geometry" />
        </mxCell>
        <mxCell id="HAz-nXSXMQ4NGfx6ONky-87" value="黑白名单" style="rounded=0;whiteSpace=wrap;html=1;fillColor=#FFFFFF;" parent="1" vertex="1">
          <mxGeometry x="240" y="425" width="110" height="30" as="geometry" />
        </mxCell>
        <mxCell id="HAz-nXSXMQ4NGfx6ONky-88" value="日志记录" style="rounded=0;whiteSpace=wrap;html=1;fillColor=#FFFFFF;" parent="1" vertex="1">
          <mxGeometry x="400" y="425" width="110" height="30" as="geometry" />
        </mxCell>
        <mxCell id="HAz-nXSXMQ4NGfx6ONky-91" value="插件" style="rounded=0;whiteSpace=wrap;html=1;fillColor=#FFFFFF;" parent="1" vertex="1">
          <mxGeometry x="558.5" y="425" width="110" height="30" as="geometry" />
        </mxCell>
        <mxCell id="HAz-nXSXMQ4NGfx6ONky-94" value="" style="shape=flexArrow;endArrow=classic;html=1;" parent="1" edge="1">
          <mxGeometry width="50" height="50" relative="1" as="geometry">
            <mxPoint x="360" y="310" as="sourcePoint" />
            <mxPoint x="360" y="360" as="targetPoint" />
          </mxGeometry>
        </mxCell>
        <mxCell id="HAz-nXSXMQ4NGfx6ONky-95" value="" style="shape=flexArrow;endArrow=classic;html=1;" parent="1" edge="1">
          <mxGeometry width="50" height="50" relative="1" as="geometry">
            <mxPoint x="369.5" y="562" as="sourcePoint" />
            <mxPoint x="369.5" y="612" as="targetPoint" />
          </mxGeometry>
        </mxCell>
        <mxCell id="HAz-nXSXMQ4NGfx6ONky-96" value="多协议支持" style="rounded=0;whiteSpace=wrap;html=1;fillColor=#FFFFFF;" parent="1" vertex="1">
          <mxGeometry x="710" y="425" width="110" height="30" as="geometry" />
        </mxCell>
        <mxCell id="HAz-nXSXMQ4NGfx6ONky-100" value="" style="rounded=0;whiteSpace=wrap;html=1;dashed=1;fillColor=#FFFFFF;strokeColor=#AB3820;" parent="1" vertex="1">
          <mxGeometry x="230" y="480" width="600" height="60" as="geometry" />
        </mxCell>
        <mxCell id="HAz-nXSXMQ4NGfx6ONky-101" value="签名校验插件" style="rounded=0;whiteSpace=wrap;html=1;" parent="1" vertex="1">
          <mxGeometry x="261" y="495" width="110" height="30" as="geometry" />
        </mxCell>
        <mxCell id="HAz-nXSXMQ4NGfx6ONky-102" value="认证插件" style="rounded=0;whiteSpace=wrap;html=1;" parent="1" vertex="1">
          <mxGeometry x="557.5" y="495" width="110" height="30" as="geometry" />
        </mxCell>
        <mxCell id="HAz-nXSXMQ4NGfx6ONky-103" value="计费管控插件" style="rounded=0;whiteSpace=wrap;html=1;" parent="1" vertex="1">
          <mxGeometry x="710" y="495" width="110" height="30" as="geometry" />
        </mxCell>
        <mxCell id="HAz-nXSXMQ4NGfx6ONky-104" value="权限校验插件" style="rounded=0;whiteSpace=wrap;html=1;" parent="1" vertex="1">
          <mxGeometry x="400" y="495" width="110" height="30" as="geometry" />
        </mxCell>
        <mxCell id="HAz-nXSXMQ4NGfx6ONky-106" value="&lt;font style=&quot;font-size: 14px&quot;&gt;JNOS 网关&lt;/font&gt;" style="text;html=1;strokeColor=none;fillColor=none;align=center;verticalAlign=middle;whiteSpace=wrap;rounded=0;dashed=1;" parent="1" vertex="1">
          <mxGeometry x="-90" y="380" width="110" height="20" as="geometry" />
        </mxCell>
        <mxCell id="oX_RfR9QwyxiSgruX0zK-2" value="" style="rounded=0;whiteSpace=wrap;html=1;" vertex="1" parent="1">
          <mxGeometry x="667.5" y="770" width="120" height="160" as="geometry" />
        </mxCell>
        <mxCell id="oX_RfR9QwyxiSgruX0zK-3" value="&lt;font style=&quot;font-size: 14px&quot;&gt;权限系统&lt;/font&gt;" style="text;html=1;strokeColor=none;fillColor=none;align=center;verticalAlign=middle;whiteSpace=wrap;rounded=0;" vertex="1" parent="1">
          <mxGeometry x="697.5" y="785" width="60" height="20" as="geometry" />
        </mxCell>
        <mxCell id="oX_RfR9QwyxiSgruX0zK-4" value="角色管理" style="rounded=0;whiteSpace=wrap;html=1;" vertex="1" parent="1">
          <mxGeometry x="692.5" y="815" width="70" height="25" as="geometry" />
        </mxCell>
        <mxCell id="oX_RfR9QwyxiSgruX0zK-5" value="策略管理" style="rounded=0;whiteSpace=wrap;html=1;" vertex="1" parent="1">
          <mxGeometry x="692.5" y="852.5" width="70" height="25" as="geometry" />
        </mxCell>
        <mxCell id="oX_RfR9QwyxiSgruX0zK-8" value="" style="endArrow=classic;html=1;strokeColor=#FF0000;" edge="1" parent="1">
          <mxGeometry width="50" height="50" relative="1" as="geometry">
            <mxPoint x="612" y="460" as="sourcePoint" />
            <mxPoint x="612" y="490" as="targetPoint" />
          </mxGeometry>
        </mxCell>
      </root>
    </mxGraphModel>
  </diagram>
</mxfile>
